<?xml version="1.0" encoding="utf-8"?>
<!-- Generator: Adobe Illustrator 24.3.0, SVG Export Plug-In . SVG Version: 6.00 Build 0)  -->
<svg version="1.1" xmlns="http://www.w3.org/2000/svg" xmlns:xlink="http://www.w3.org/1999/xlink" x="0px" y="0px"
	 viewBox="0 0 731 110" style="enable-background:new 0 0 731 110;" xml:space="preserve">
<style type="text/css">
	.st0{fill:#0081C6;}
	.st1{fill:#008752;}
	.st2{fill:#54534A;}
	.st3{fill:#73B699;}
	.st4{fill:#007042;}
	.st5{fill:#00833E;}
	.st6{fill:#369673;}
	.st7{fill:#008753;}
	.st8{fill:#70B195;}
	.st9{fill:#77B3B9;}
	.st10{fill:#3F93C7;}
	.st11{fill:#3EA27E;}
	.st12{fill:#449FBF;}
	.st13{fill:#6FA4CD;}
	.st14{fill:#0075C9;}
	.st15{fill:#297BA3;}
	.st16{fill:#0081BF;}
	.st17{fill:#439ECD;}
	.st18{fill:#0067A0;}
	.st19{fill:#0083AD;}
	.st20{fill:#00865F;}
	.st21{fill:#6AA98E;}
	.st22{fill:#00824E;}
	.st23{fill:#3A9D79;}
	.st24{fill:#187771;}
	.st25{fill:#3B81A8;}
	.st26{fill:#6DA1CA;}
	.st27{fill:#44A0B2;}
	.st28{fill:#73A9D4;}
	.st29{fill:#0075B4;}
	.st30{display:none;}
	.st31{display:inline;}
	.st32{clip-path:url(#SVGID_2_);}
	.st33{clip-path:url(#SVGID_6_);}
	.st34{clip-path:url(#SVGID_10_);fill:#54534A;}
	.st35{clip-path:url(#SVGID_10_);fill:#0081C6;}
	.st36{clip-path:url(#SVGID_10_);fill:#008752;}
	.st37{clip-path:url(#SVGID_12_);fill:none;stroke:#3D3935;stroke-width:0.4;}
</style>
<g id="rgb">
	<g>
		<g>
			<path class="st0" d="M286,39.1v13.6h12c3.2,0,5.8-2.6,5.8-5.8V21.3c0-3.2-2.6-5.8-5.8-5.8h-25.5c-3.2,0-5.8,2.6-5.8,5.8v12h13.6
				C283.4,33.3,286,35.9,286,39.1z M242.5,39.1v13.6h-12c-3.2,0-5.8-2.6-5.8-5.8V21.3c0-3.2,2.6-5.8,5.8-5.8h25.5
				c3.2,0,5.8,2.6,5.8,5.8v12h-13.6C245.1,33.3,242.5,35.9,242.5,39.1z"/>
			<path class="st1" d="M242.5,70.9V57.4h-12c-3.2,0-5.8,2.6-5.8,5.8v25.5c0,3.2,2.6,5.8,5.8,5.8h25.5c3.2,0,5.8-2.6,5.8-5.8v-12
				h-13.6C245.1,76.7,242.5,74.1,242.5,70.9z M286,70.9V57.4h12c3.2,0,5.8,2.6,5.8,5.8v25.5c0,3.2-2.6,5.8-5.8,5.8h-25.5
				c-3.2,0-5.8-2.6-5.8-5.8v-12h13.6C283.4,76.7,286,74.1,286,70.9z"/>
			<polygon class="st2" points="441.6,75.2 441.7,75.2 441.6,74.9 			"/>
			<path class="st2" d="M355.8,63c-1.3,8.9-7.3,14.3-16.4,14.3c-12.4,0-17.9-11.4-17.9-22.4c0-10.9,5.5-22.4,17.9-22.4
				c8.9,0,14.9,5.1,16.4,14.3l-8.3,1.1c-0.8-4.5-2.8-8.6-8.1-8.6c-7.5,0-9,9.9-9,15.5c0,5.6,1.5,15.5,9,15.5c5.2,0,7.3-4.1,8.1-8.5
				L355.8,63z"/>
			<rect x="360.8" y="33.3" class="st2" width="8.3" height="43.4"/>
			<path class="st2" d="M393.3,57.8c0-3.5-1.4-7-5.4-7c-3.7,0-5.2,3.6-5.4,7H393.3z M382.4,63c-0.3,3.8,1.9,8.3,6.1,8.3
				c2.6,0,4.3-1.7,5.2-4.5l7.7,0.9c-1.8,6.2-7.8,9.7-13.7,9.7c-9.1,0-13.7-8-13.7-16.3c0-8.3,4.6-16.3,13.7-16.3
				c7.9,0,13.9,3.7,13.7,18.3H382.4z"/>
			<path class="st2" d="M452.1,57.8c0-3.5-1.4-7-5.4-7c-3.7,0-5.2,3.6-5.4,7H452.1z M441.1,63c-0.3,3.8,1.9,8.3,6.1,8.3
				c2.6,0,4.3-1.7,5.2-4.5l7.7,0.9c-1.8,6.2-7.8,9.7-13.7,9.7c-9.1,0-13.7-8-13.7-16.3c0-8.3,4.6-16.3,13.7-16.3
				c7.9,0,13.9,3.7,13.7,18.3H441.1z"/>
			<polygon class="st2" points="421.9,76.7 413.2,76.7 403.5,45.5 412.1,45.5 417.6,68.5 417.7,68.5 423.1,45.5 431.3,45.5 			"/>
			<rect x="465.7" y="33.3" class="st2" width="8.3" height="43.4"/>
			<path class="st2" d="M497.1,62.4c-3.4,0.6-10.2,1-10.2,5.5c0,1.8,0.9,3.3,2.8,3.3c3.4,0,5.7-2,7.3-4.1V62.4z M497.6,73.8
				c-3.1,2.2-5,3.5-8.9,3.5c-5.4,0-9.8-3.7-9.8-9.3c0-8.8,11.6-10.6,18.2-11.3c0.6-4.3-0.9-5.9-4-5.9c-2.6,0-4.5,1.2-5,3.9l-7.9-1.2
				c1.8-6.6,6.3-8.8,12.8-8.8c8.4,0,12.3,4,12.3,9.9v15.5c0,2.2,0.1,4.5,1.1,6.5h-7.9C497.9,75.3,497.6,73.8,497.6,73.8z"/>
			<path class="st2" d="M520.3,48.7c2.6-2.2,5.9-3.9,9.3-3.9c3.4,0,8.2,2.1,8.2,9.8v22.2h-8.3V57.9c0-2.5,0.2-6.5-3.4-6.5
				c-2.4,0-4.3,1.7-5.9,3.4v21.9h-8.3V45.5h8.3V48.7z"/>
			<path class="st2" d="M623.1,63c-1.3,8.9-7.3,14.3-16.4,14.3c-12.4,0-17.9-11.4-17.9-22.4c0-10.9,5.5-22.4,17.9-22.4
				c8.9,0,14.9,5.1,16.4,14.3l-8.3,1.1c-0.8-4.5-2.8-8.6-8.1-8.6c-7.5,0-9,9.9-9,15.5c0,5.6,1.5,15.5,9,15.5c5.2,0,7.3-4.1,8.1-8.5
				L623.1,63z"/>
			<rect x="628.1" y="33.3" class="st2" width="8.3" height="43.4"/>
			<path class="st2" d="M651.5,76.7h-8.3V45.5h8.3V76.7z M651.5,40.9h-8.3v-7.6h8.3V40.9z"/>
			<path class="st2" d="M666.5,48.7c2.6-2.2,5.9-3.9,9.3-3.9c3.4,0,8.2,2.1,8.2,9.8v22.2h-8.3V57.9c0-2.5,0.2-6.5-3.4-6.5
				c-2.4,0-4.3,1.7-5.9,3.4v21.9h-8.3V45.5h8.3V48.7z"/>
			<path class="st2" d="M699.1,76.7h-8.3V45.5h8.3V76.7z M699.1,40.9h-8.3v-7.6h8.3V40.9z"/>
			<path class="st2" d="M731,66.6c-1.3,6.5-6.1,10.8-13.1,10.8c-9.1,0-13.7-8-13.7-16.3c0-8.3,4.6-16.3,13.7-16.3
				c7,0,11.7,4.2,13.1,10.8l-7.5,1c-0.6-2.5-1.4-5.7-5.6-5.7c-4.5,0-5.2,6.3-5.2,10.2c0,3.9,0.8,10.2,5.2,10.2
				c4.2,0,4.8-2.9,5.5-5.7L731,66.6z"/>
			<path class="st2" d="M562.7,66.8c-1.3,2-2.9,3.6-5.4,3.6c-5,0-5.7-6-5.7-9.8c0-3.5,0.9-9.3,5.5-9.3c2.4,0,4.1,1.7,5.5,3.4V66.8z
				 M571,71.1V33.3h-8.3v15.2c-2.3-2.1-4.3-3.7-7.7-3.7c-4.5,0-11.4,4-11.4,15.5c0,13.2,5.8,17.1,12.1,17.1c3.5,0,5.3-1.2,7.8-3.4
				c0,0,0.3,1.5,0.9,2.8h7.6C571.2,74.9,571,73,571,71.1z"/>
		</g>
	</g>
</g>
<g id="Layer_1">
	<g>
		<g>
			<path class="st3" d="M134,55c-0.2,1.1-0.4,2.2-0.6,3.1c-1,4-2.4,6.8-4.2,8.4c-0.4,0.4-0.9,0.7-1.3,1l10.9-2.9L134,55z"/>
			<path class="st4" d="M136.3,79.4c2.4-1.7,4.5-3.9,6.3-6.7l-3.8-8L136.3,79.4z"/>
			<path class="st5" d="M138.8,64.7l3.8,8c0,0,0,0,0-0.1c1.2-1.8,2.2-4,3-6.4L138.8,64.7z"/>
			<path class="st6" d="M138.8,64.7l6.9,1.5c0.7-2.1,1.3-4.5,1.8-7.1L138.8,64.7z"/>
			<path class="st7" d="M134.8,46.2c-0.1,3.4-0.4,6.4-0.8,8.8l4.8,9.7l8.7-5.6c0.4-2.4,0.8-5,1-7.8L134.8,46.2z"/>
			<path class="st8" d="M148.7,33.7H142l6.9,10.3c0-1,0-2,0-3.1C148.9,38.4,148.9,36,148.7,33.7z"/>
			<path class="st9" d="M142,33.7h6.7c-0.2-3-0.4-5.7-0.8-8.2L142,33.7z"/>
			<path class="st10" d="M131.6,19.9c0.7,1.3,1.3,2.9,1.8,4.8l8.6,8.9l-11.7-23.5L131.6,19.9z"/>
			<path class="st11" d="M142,33.7l-7.2,5.4c0,0.5,0,1,0,1.5c0,2,0,3.8-0.1,5.6l13.7,5.2c0.2-2.3,0.3-4.7,0.4-7.3L142,33.7z"/>
			<path class="st12" d="M134.9,39.1l7.2-5.4l-8.6-8.9C134.3,28.4,134.8,33.2,134.9,39.1z"/>
			<path class="st13" d="M136.8,4.1c-2.3-1.7-5-2.9-8-3.5l1.6,9.6L136.8,4.1z"/>
			<path class="st14" d="M136.8,4.2C136.8,4.1,136.8,4.1,136.8,4.2l-6.5,6l14.1,3.7C142.5,9.7,139.9,6.4,136.8,4.2z"/>
			<path class="st15" d="M144.5,13.9l-14.1-3.7L142,33.7l5.9-8.2c-0.5-3.4-1.3-6.3-2.2-8.7C145.3,15.8,144.9,14.8,144.5,13.9z"/>
			<path class="st16" d="M124.8,14.2c2.7,0.6,4.9,2.4,6.7,5.5c0,0,0.1,0.1,0.1,0.1l-1.3-9.8L124.8,14.2z"/>
			<path class="st17" d="M122.9,14c0.7,0,1.3,0.1,1.9,0.2l5.5-4.1l-1.6-9.6c-0.2-0.1-0.5-0.1-0.7-0.1L122.7,14
				C122.8,14,122.8,14,122.9,14z"/>
			<path class="st18" d="M122.7,14L128,0.5c-1.6-0.3-3.4-0.5-5.2-0.5c-3.7,0-6.9,0.6-9.8,1.8l7.5,12.5C121.2,14.2,122,14,122.7,14z"
				/>
			<path class="st17" d="M115.3,18.6c1-1.6,2.2-2.8,3.5-3.5l-8.8-4.1L115.3,18.6z"/>
			<path class="st14" d="M118.8,15.1c0.5-0.3,1.1-0.5,1.7-0.7L113,1.8c-0.8,0.3-1.6,0.7-2.3,1.2l-0.7,8L118.8,15.1z"/>
			<path class="st13" d="M110.1,11l0.7-8c-0.6,0.4-1.2,0.7-1.7,1.2c-1.2,0.9-2.3,2-3.4,3.3L110.1,11z"/>
			<path class="st18" d="M105.6,7.4c-1.5,1.9-2.9,4.1-4.1,6.7l8.5-3.1L105.6,7.4z"/>
			<path class="st15" d="M101.5,14.1c-0.4,1-0.8,2-1.2,3c-0.6,1.5-1,3.2-1.4,5l11.2-11L101.5,14.1z"/>
			<path class="st10" d="M111.9,28.9c0.6-4,1.6-7.1,2.8-9.4c0.2-0.3,0.4-0.6,0.5-0.9l-5.3-7.6L98.8,22c-0.4,1.6-0.7,3.4-0.9,5.2
				L111.9,28.9z"/>
			<path class="st12" d="M104,43.6l7.1-1.1c0-0.3,0-0.7,0-1c0-2.6,0.1-5,0.2-7.2L104,43.6z"/>
			<path class="st19" d="M104,43.6l7.4-9.4c0.1-1.9,0.3-3.7,0.6-5.3l-14-1.6c-0.2,1.2-0.3,2.5-0.4,3.8L104,43.6z"/>
			<path class="st6" d="M112.3,68.3l3.2-3.5c-0.4-0.5-0.7-1.1-1.1-1.7c-2.1-3.8-3.2-10.7-3.3-20.6l-7.1,1.1L112.3,68.3z"/>
			<path class="st11" d="M115.5,64.8l-3.2,3.5h7.1C117.9,67.6,116.6,66.4,115.5,64.8z"/>
			<path class="st12" d="M97.5,31c-0.3,3.2-0.4,6.8-0.4,10.6c0,2.3,0.1,4.5,0.2,6.6l6.8-4.6L97.5,31z"/>
			<path class="st9" d="M97.2,48.3c0.1,2.5,0.3,4.8,0.6,6.9l6.2-11.6L97.2,48.3z"/>
			<path class="st11" d="M104,43.6l-6.2,11.6c0.5,4.2,1.3,7.9,2.4,10.9c0.4,1.1,0.8,2.1,1.3,3.1l10.8-0.9L104,43.6z"/>
			<path class="st6" d="M116.7,82.6l-4.4-14.4L110.5,80C112.4,81.2,114.5,82,116.7,82.6z"/>
			<path class="st5" d="M109.3,79.1c0.4,0.3,0.8,0.6,1.2,0.8l1.8-11.7l-10.8,0.9C103.5,73.5,106.1,76.8,109.3,79.1z"/>
			<path class="st4" d="M125.1,68.8c-0.7,0.2-1.5,0.3-2.3,0.3c-1.3,0-2.4-0.3-3.5-0.8h-7.1l4.4,14.4c1.1,0.3,2.2,0.5,3.4,0.6
				L125.1,68.8z"/>
			<path class="st20" d="M132.9,81.4l-7.4-12.7c-0.1,0-0.3,0.1-0.4,0.1l-5.1,14.5c1,0.1,2.1,0.2,3.1,0.2
				C126.8,83.4,130,82.7,132.9,81.4z"/>
			<path class="st6" d="M125.6,68.7l7.4,12.7c1.2-0.5,2.3-1.2,3.4-2l2.5-14.7l-10.9,2.9C127.1,68.1,126.4,68.4,125.6,68.7z"/>
		</g>
		<g>
			<polygon class="st13" points="25.3,34.4 15.5,30.1 15.5,28.5 22.3,13.6 			"/>
			<polygon class="st21" points="29.8,76.6 29.8,69.5 23.9,66.7 			"/>
			<polygon class="st22" points="23.9,66.7 29.8,69.5 29.8,64 22.3,53.1 			"/>
			<polygon class="st8" points="29.8,54 29.8,50.7 22.3,53.1 			"/>
			<polygon class="st23" points="29.8,64 29.8,54 22.3,53.1 			"/>
			<polygon class="st11" points="22.3,53.1 29.8,50.7 29.8,38.2 25.3,34.4 			"/>
			<polygon class="st24" points="29.8,38.2 29.8,21.9 25.3,34.4 			"/>
			<polygon class="st25" points="25.3,34.4 29.8,21.9 29.8,15.8 22.3,13.6 			"/>
			<polygon class="st14" points="29.8,15.8 29.8,9.5 26.1,1.2 22.8,1.2 22.3,13.6 			"/>
			<polygon class="st17" points="29.8,1.2 26.1,1.2 29.8,9.5 			"/>
			<polygon class="st26" points="22.8,1.2 12,1.2 22.3,13.6 			"/>
			<polygon class="st4" points="20.6,82.2 29.8,82.2 29.8,76.6 23.9,66.7 			"/>
			<polygon class="st6" points="15.5,82.2 19.8,82.2 15.5,73.3 			"/>
			<polygon class="st5" points="15.5,72.9 15.5,73.3 19.8,82.2 20.6,82.2 23.9,66.7 			"/>
			<polygon class="st3" points="15.5,61.1 15.5,72.9 23.9,66.7 			"/>
			<polygon class="st6" points="25.3,34.4 15.5,48.9 15.5,54.4 22.3,53.1 			"/>
			<polygon class="st11" points="22.3,53.1 15.5,54.4 15.5,61.1 23.9,66.7 			"/>
			<polygon class="st27" points="15.5,30.1 15.5,48.4 15.5,48.9 25.3,34.4 			"/>
			<polygon class="st17" points="22.3,13.6 15.5,19.7 15.5,22.5 15.5,28.5 			"/>
			<polygon class="st13" points="5.5,15.7 3,10.5 0,15.7 			"/>
			<polygon class="st14" points="3,10.5 5.5,15.7 7.8,15.7 10.2,1.2 8.3,1.2 			"/>
			<polygon class="st18" points="15.5,15.7 15.5,19.7 22.3,13.6 12,1.2 10.2,1.2 7.8,15.7 			"/>
		</g>
		<g>
			<path class="st14" d="M52.6,28.4c0.2-1.1,0.4-2.2,0.6-3.1c1-4,2.4-6.8,4.2-8.4c0.4-0.4,0.9-0.7,1.3-1l-10.9,2.9L52.6,28.4z"/>
			<path class="st14" d="M50.3,4c-2.4,1.7-4.5,3.9-6.3,6.7l3.8,8L50.3,4z"/>
			<path class="st13" d="M47.8,18.7l-3.8-8c0,0,0,0,0,0.1c-1.2,1.8-2.2,4-3,6.4L47.8,18.7z"/>
			<path class="st17" d="M47.8,18.7l-6.9-1.5c-0.7,2.1-1.3,4.5-1.8,7.1L47.8,18.7z"/>
			<path class="st19" d="M51.8,37.2c0.1-3.4,0.4-6.4,0.8-8.8l-4.8-9.7l-8.7,5.6c-0.4,2.4-0.8,5-1,7.8L51.8,37.2z"/>
			<path class="st9" d="M37.9,49.7h6.7l-6.9-10.3c0,1,0,2,0,3.1C37.7,45,37.7,47.4,37.9,49.7z"/>
			<path class="st20" d="M44.6,49.7h-6.7c0.2,3,0.4,5.7,0.8,8.2L44.6,49.7z"/>
			<path class="st6" d="M55,63.5c-0.7-1.3-1.3-2.9-1.8-4.8l-8.6-8.9l11.7,23.5L55,63.5z"/>
			<path class="st12" d="M44.6,49.7l7.2-5.4c0-0.5,0-1,0-1.5c0-2,0-3.8,0.1-5.6l-13.7-5.2c-0.2,2.3-0.3,4.7-0.4,7.3L44.6,49.7z"/>
			<path class="st8" d="M51.7,44.3l-7.2,5.4l8.6,8.9C52.3,55,51.8,50.2,51.7,44.3z"/>
			<path class="st6" d="M49.8,79.3c2.3,1.7,5,2.9,8,3.5l-1.6-9.6L49.8,79.3z"/>
			<path class="st5" d="M49.8,79.2C49.8,79.2,49.8,79.3,49.8,79.2l6.5-6l-14.1-3.7C44.1,73.7,46.7,77,49.8,79.2z"/>
			<path class="st11" d="M42.1,69.5l14.1,3.7L44.6,49.7l-5.9,8.2c0.5,3.4,1.3,6.3,2.2,8.7C41.3,67.6,41.7,68.6,42.1,69.5z"/>
			<path class="st5" d="M61.8,69.2c-2.7-0.6-4.9-2.4-6.7-5.5c0,0-0.1-0.1-0.1-0.1l1.3,9.8L61.8,69.2z"/>
			<path class="st11" d="M63.7,69.4c-0.7,0-1.3-0.1-1.9-0.2l-5.5,4.1l1.6,9.6c0.2,0.1,0.5,0.1,0.7,0.1l5.3-13.6
				C63.8,69.4,63.8,69.4,63.7,69.4z"/>
			<path class="st4" d="M63.8,69.4l-5.3,13.6c1.6,0.3,3.4,0.5,5.2,0.5c3.7,0,6.9-0.6,9.8-1.8L66,69C65.3,69.2,64.6,69.3,63.8,69.4z"
				/>
			<path class="st3" d="M71.3,64.8c-1,1.6-2.2,2.8-3.5,3.5l8.8,4.1L71.3,64.8z"/>
			<path class="st20" d="M67.8,68.3c-0.5,0.3-1.1,0.5-1.7,0.7l7.5,12.5c0.8-0.3,1.6-0.7,2.3-1.2l0.7-8L67.8,68.3z"/>
			<path class="st6" d="M76.5,72.4l-0.7,8c0.6-0.4,1.2-0.7,1.7-1.2c1.2-0.9,2.3-2,3.4-3.3L76.5,72.4z"/>
			<path class="st22" d="M81,76c1.5-1.9,2.9-4.1,4.1-6.7l-8.5,3.1L81,76z"/>
			<path class="st4" d="M85.1,69.3c0.4-1,0.8-2,1.2-3c0.6-1.5,1-3.2,1.4-5l-11.2,11L85.1,69.3z"/>
			<path class="st20" d="M74.7,54.5c-0.6,4-1.6,7.1-2.8,9.4c-0.2,0.3-0.4,0.6-0.5,0.9l5.3,7.6l11.2-11c0.4-1.6,0.7-3.4,0.9-5.2
				L74.7,54.5z"/>
			<path class="st11" d="M82.7,43.5l-7.2-2.6c0,0.3,0,0.7,0,1c0,2.6-0.1,5-0.2,7.2L82.7,43.5z"/>
			<path class="st6" d="M82.7,43.5l-7.4,5.7c-0.1,1.9-0.3,3.7-0.6,5.3l14,1.6c0.2-1.2,0.3-2.5,0.4-3.8L82.7,43.5z"/>
			<path class="st15" d="M76.6,15.5l-5.5,3.1c0.4,0.5,0.7,1.1,1.1,1.7c2.1,3.8,3.2,10.7,3.3,20.6l7.2,2.6L76.6,15.5z"/>
			<path class="st13" d="M71.1,18.6l5.5-3.1l-9.4-0.3C68.7,15.8,70,17,71.1,18.6z"/>
			<path class="st8" d="M89.1,52.3c0.5-6,0.4-8.9,0.4-10.6c0-2.3-0.1-4.5-0.2-6.6l-6.7,8.3L89.1,52.3z"/>
			<path class="st9" d="M89.4,35.1c-0.1-2.5-0.3-4.8-0.6-6.9l-6.1,15.3L89.4,35.1z"/>
			<path class="st17" d="M82.7,43.5l6.1-15.3c-0.5-4.2-1.3-7.9-2.4-10.9c-0.4-1.1-0.8-2.1-1.3-3.1l-8.5,1.2L82.7,43.5z"/>
			<path class="st17" d="M69.9,0.8l6.7,14.7l-0.5-12C74.2,2.2,72.1,1.4,69.9,0.8z"/>
			<path class="st28" d="M77.3,4.3c-0.4-0.3-0.8-0.6-1.2-0.8l0.5,12l8.5-1.2C83.1,9.9,80.5,6.6,77.3,4.3z"/>
			<path class="st29" d="M61.4,14.6c0.7-0.2,1.5-0.3,2.3-0.3c1.3,0,2.4,0.3,3.5,0.8l9.4,0.3L69.9,0.8c-1.1-0.3-2.2-0.5-3.4-0.6
				L61.4,14.6z"/>
			<path class="st26" d="M53.7,2L61,14.7c0.1,0,0.3-0.1,0.4-0.1l5.1-14.5c-1-0.1-2.1-0.2-3.1-0.2C59.8,0,56.6,0.7,53.7,2z"/>
			<path class="st18" d="M61,14.7L53.7,2c-1.2,0.5-2.3,1.2-3.4,2l-2.5,14.7l10.9-2.9C59.5,15.3,60.2,15,61,14.7z"/>
		</g>
		<path class="st2" d="M20.7,109.7v-7.4l-5.5-11.4H19l3.6,7.8l3.6-7.8h3.5l-5.4,11.4v7.5H20.7z"/>
		<path class="st2" d="M43.5,109.7V90.9h12.2V94h-8.7v4.5h6.3v3h-6.3v5.1h9.1v3.2H43.5z"/>
		<path class="st2" d="M71.4,109.7l5.7-18.8h4.4l5.7,18.8h-3.5l-1.2-4.1h-6.5l-1.2,4.1H71.4z M76.8,102.6h4.8l-2.4-8.4L76.8,102.6z"
			/>
		<path class="st2" d="M102.3,109.7V90.9h6.4c2.4,0,4.2,0.5,5.3,1.4c1.2,0.9,1.7,2.3,1.7,4.2c0,1.2-0.3,2.2-0.9,3.1
			c-0.6,0.8-1.5,1.4-2.6,1.7l4.2,8.5h-3.8l-3.6-7.6h-3.2v7.6H102.3z M105.8,99.1h3.1c1.1,0,2-0.2,2.5-0.6c0.5-0.4,0.8-1.1,0.8-2
			c0-0.9-0.3-1.6-0.8-2c-0.5-0.4-1.4-0.6-2.5-0.6h-3.1V99.1z"/>
		<path class="st2" d="M131.2,105.5l3.2-1.4c0.5,1,1.1,1.7,1.7,2.2s1.3,0.7,2.2,0.7c0.9,0,1.7-0.2,2.2-0.6c0.5-0.4,0.8-1,0.8-1.7
			c0-0.6-0.2-1.1-0.6-1.5c-0.4-0.4-1.1-0.8-2.2-1.2c-0.1-0.1-0.3-0.1-0.6-0.2c-1.8-0.7-3.1-1.2-3.9-1.7c-0.7-0.5-1.3-1-1.6-1.7
			c-0.4-0.7-0.6-1.5-0.6-2.4c0-1.5,0.6-2.8,1.7-3.7c1.1-0.9,2.6-1.4,4.4-1.4c1.6,0,2.9,0.3,4,1c1.1,0.7,1.9,1.7,2.3,3.1l-3.2,1.2
			c-0.4-0.8-0.9-1.5-1.4-1.8c-0.5-0.4-1.2-0.6-2-0.6c-0.8,0-1.4,0.2-1.8,0.5c-0.4,0.4-0.7,0.8-0.7,1.5c0,1,1.1,1.9,3.3,2.7
			c0.7,0.3,1.2,0.5,1.6,0.6c1.8,0.8,3,1.6,3.7,2.4c0.7,0.8,1,1.8,1,3.1c0,1.7-0.6,3.1-1.7,4.1c-1.1,1-2.7,1.5-4.7,1.5
			c-1.7,0-3.2-0.4-4.4-1.1C132.7,108.1,131.8,107,131.2,105.5z"/>
	</g>
	<rect x="187.3" class="st2" width="0.8" height="110"/>
</g>
<g id="Layer_3" class="st30">
	<g class="st31">
		<g>
			<defs>
				<rect id="SVGID_1_" x="70.8" y="70.1" width="208.5" height="121.8"/>
			</defs>
			<clipPath id="SVGID_2_">
				<use xlink:href="#SVGID_1_"  style="overflow:visible;"/>
			</clipPath>
			<g class="st32">
				<defs>
					<rect id="SVGID_3_" x="70.8" y="70" width="208.5" height="122"/>
				</defs>
				<clipPath id="SVGID_4_">
					<use xlink:href="#SVGID_3_"  style="overflow:visible;"/>
				</clipPath>
				<g style="clip-path:url(#SVGID_4_);">
					
						<image style="overflow:visible;" width="241" height="141" xlink:href="5144681989AB4102.jpg"  transform="matrix(0.8652 0 0 0.8652 70.7866 69.9523)">
					</image>
				</g>
			</g>
		</g>
		<g>
			<defs>
				<rect id="SVGID_5_" x="70.8" y="191.9" width="208.5" height="75.3"/>
			</defs>
			<clipPath id="SVGID_6_">
				<use xlink:href="#SVGID_5_"  style="overflow:visible;"/>
			</clipPath>
			<g class="st33">
				<defs>
					<rect id="SVGID_7_" x="70.8" y="191.9" width="208.5" height="75.3"/>
				</defs>
				<clipPath id="SVGID_8_">
					<use xlink:href="#SVGID_7_"  style="overflow:visible;"/>
				</clipPath>
				<g style="clip-path:url(#SVGID_8_);">
					
						<image style="overflow:visible;" width="241" height="87" xlink:href="5144681989AB4106.jpg"  transform="matrix(0.8652 0 0 0.8652 70.7866 191.9466)">
					</image>
				</g>
			</g>
		</g>
		<g>
			<defs>
				<rect id="SVGID_9_" x="412.7" y="120.2" width="468.4" height="117.2"/>
			</defs>
			<clipPath id="SVGID_10_">
				<use xlink:href="#SVGID_9_"  style="overflow:visible;"/>
			</clipPath>
			<path class="st34" d="M535.5,164.3c-1.3,8.4-6.9,13.5-15.4,13.5c-11.7,0-16.9-10.8-16.9-21.1c0-10.3,5.2-21.1,16.9-21.1
				c8.4,0,14,4.8,15.4,13.5l-7.8,1.1c-0.8-4.3-2.7-8.1-7.6-8.1c-7,0-8.5,9.4-8.5,14.6s1.4,14.6,8.5,14.6c4.9,0,6.8-3.8,7.6-8
				L535.5,164.3z"/>
			<rect x="539.8" y="136.3" class="st34" width="7.8" height="40.9"/>
			<path class="st34" d="M559.6,164.3c-0.3,3.6,1.9,7.8,5.9,7.8c2.8,0,4.3-2.3,4.9-4.7l7.2,1.3c-1.7,5.8-7.3,9.1-12.9,9.1
				c-8.6,0-12.9-7.6-12.9-15.3c0-7.8,4.3-15.3,12.9-15.3c7.4,0,13.1,3.5,12.9,17.2H559.6z M569.9,159.4c0-3.3-1.3-6.6-5-6.6
				c-3.5,0-4.9,3.4-5,6.6H569.9z"/>
			<polygon class="st34" points="596.3,177.2 588.1,177.2 578.9,147.7 587.1,147.7 592.2,168.8 592.3,168.8 597.4,147.7 
				605.1,147.7 			"/>
			<path class="st34" d="M614.3,164.3c-0.3,3.6,1.9,7.8,5.9,7.8c2.8,0,4.3-2.3,4.9-4.7l7.2,1.3c-1.7,5.8-7.3,9.1-12.9,9.1
				c-8.6,0-12.9-7.6-12.9-15.3c0-7.8,4.3-15.3,12.9-15.3c7.4,0,13.1,3.5,12.9,17.2H614.3z M624.7,159.4c0-3.3-1.3-6.6-5-6.6
				c-3.5,0-4.9,3.4-5,6.6H624.7z"/>
			<rect x="636.6" y="136.3" class="st34" width="7.8" height="40.9"/>
			<path class="st34" d="M666.1,174.5c-2.9,2.1-4.6,3.3-8.4,3.3c-5.1,0-9.3-3.5-9.3-8.7c0-8.3,10.9-10,17.2-10.7
				c0.5-4.1-0.8-5.6-3.7-5.6c-2.5,0-4.3,1.1-4.7,3.7l-7.5-1.2c1.7-6.3,5.9-8.3,12.1-8.3c7.9,0,11.6,3.8,11.6,9.3V171
				c0,2.1,0.1,4.2,1.1,6.1H667L666.1,174.5z M665.7,163.7c-3.2,0.6-9.6,0.9-9.6,5.2c0,1.7,0.8,3.2,2.7,3.2c3.2,0,5.4-1.9,6.9-3.8
				V163.7z"/>
			<path class="st34" d="M686.4,150.8c2.5-2,5.5-3.7,8.8-3.7c3.2,0,7.7,1.9,7.7,9.2v20.9h-7.8v-17.7c0-2.4,0.2-6.1-3.2-6.1
				c-2.3,0-4,1.6-5.5,3.2v20.6h-7.8v-29.4h7.8V150.8z"/>
			<path class="st34" d="M725.9,174.7c-2.4,2.1-4.2,3.1-7.5,3.1c-5.9,0-11.4-3.7-11.4-16.1c0-10.9,6.5-14.6,10.8-14.6
				c3.2,0,5,1.6,7.3,3.5v-14.3h7.8v40.9h-6.3L725.9,174.7z M719.9,153.3c-4.3,0-5.2,5.5-5.2,8.7c0,3.5,0.7,9.2,5.4,9.2
				c2.3,0,3.8-1.5,5-3.4v-11.3C723.7,154.8,722.1,153.3,719.9,153.3"/>
			<path class="st34" d="M785,164.3c-1.3,8.4-6.9,13.5-15.4,13.5c-11.7,0-16.9-10.8-16.9-21.1c0-10.3,5.2-21.1,16.9-21.1
				c8.4,0,14,4.8,15.4,13.5l-7.8,1.1c-0.8-4.3-2.7-8.1-7.6-8.1c-7,0-8.5,9.4-8.5,14.6s1.4,14.6,8.5,14.6c4.9,0,6.8-3.8,7.6-8
				L785,164.3z"/>
			<rect x="789.2" y="136.3" class="st34" width="7.8" height="40.9"/>
			<path class="st34" d="M809.8,143.4H802v-7.1h7.8V143.4z M809.8,177.2H802v-29.4h7.8V177.2z"/>
			<path class="st34" d="M822.5,150.8c2.5-2,5.5-3.7,8.8-3.7c3.2,0,7.7,1.9,7.7,9.2v20.9h-7.8v-17.7c0-2.4,0.2-6.1-3.2-6.1
				c-2.3,0-4,1.6-5.5,3.2v20.6h-7.8v-29.4h7.8V150.8z"/>
			<path class="st34" d="M851.7,143.4h-7.8v-7.1h7.8V143.4z M851.7,177.2h-7.8v-29.4h7.8V177.2z"/>
			<path class="st34" d="M881.1,167.7c-1.3,6.1-5.7,10.1-12.3,10.1c-8.6,0-12.9-7.6-12.9-15.3c0-7.8,4.3-15.3,12.9-15.3
				c6.6,0,11,4,12.3,10.1l-7,1.2c-0.6-2.8-1.3-5.6-5.3-5.6c-4.2,0-4.9,5.9-4.9,9.6c0,3.7,0.7,9.6,4.9,9.6c3.9,0,4.7-2.8,5.3-5.7
				L881.1,167.7z"/>
			<path class="st35" d="M469.8,142.1v12.6h11.2c3,0,5.4-2.4,5.4-5.4v-23.8c0-3-2.4-5.4-5.4-5.4h-23.8c-3,0-5.4,2.4-5.4,5.4v11.2
				h12.6C467.3,136.7,469.8,139.1,469.8,142.1 M429.3,142.1v12.6h-11.2c-3,0-5.4-2.4-5.4-5.4v-23.8c0-3,2.4-5.4,5.4-5.4h23.8
				c3,0,5.4,2.4,5.4,5.4v11.2h-12.6C431.7,136.7,429.3,139.1,429.3,142.1"/>
			<path class="st36" d="M429.3,171.8v-12.6h-11.2c-3,0-5.4,2.4-5.4,5.4v23.8c0,3,2.4,5.4,5.4,5.4h23.8c3,0,5.4-2.4,5.4-5.4v-11.2
				h-12.6C431.7,177.2,429.3,174.8,429.3,171.8 M469.8,171.8v-12.6h11.2c3,0,5.4,2.4,5.4,5.4v23.8c0,3-2.4,5.4-5.4,5.4h-23.8
				c-3,0-5.4-2.4-5.4-5.4v-11.2h12.6C467.3,177.2,469.8,174.8,469.8,171.8"/>
			<polygon class="st34" points="512.9,223.8 524,223.8 524,228.4 507.5,228.4 507.5,201.5 512.9,201.5 			"/>
			<path class="st34" d="M526.2,218.7c0-5.1,2.8-10.1,8.5-10.1c5.7,0,8.5,4.9,8.5,10.1c0,5.1-2.9,10.1-8.5,10.1
				C529,228.8,526.2,223.8,526.2,218.7 M537.9,218.7c0-2.4-0.5-6.3-3.2-6.3c-2.8,0-3.2,3.9-3.2,6.3s0.5,6.3,3.2,6.3
				C537.4,225,537.9,221.1,537.9,218.7"/>
			<path class="st34" d="M551.4,211c1.6-1.3,3.6-2.4,5.8-2.4c2.1,0,5.1,1.3,5.1,6v13.7h-5.1v-11.6c0-1.6,0.1-4-2.1-4
				c-1.5,0-2.7,1.1-3.6,2.1v13.5h-5.1V209h5.1V211z"/>
			<path class="st34" d="M577.8,226.7c-1.6,1.4-2.8,2-4.9,2c-3.9,0-7.5-2.4-7.5-10.6c0-7.1,4.3-9.6,7.1-9.6c2.1,0,3.3,1,4.8,2.3
				v-9.4h5.1v26.9h-4.1L577.8,226.7z M573.8,212.7c-2.8,0-3.4,3.6-3.4,5.7c0,2.3,0.4,6,3.5,6c1.5,0,2.5-1,3.3-2.2v-7.5
				C576.3,213.7,575.3,212.7,573.8,212.7"/>
			<path class="st34" d="M585.5,218.7c0-5.1,2.8-10.1,8.5-10.1c5.7,0,8.5,4.9,8.5,10.1c0,5.1-2.9,10.1-8.5,10.1
				C588.4,228.8,585.5,223.8,585.5,218.7 M597.3,218.7c0-2.4-0.5-6.3-3.2-6.3c-2.8,0-3.2,3.9-3.2,6.3s0.5,6.3,3.2,6.3
				C596.8,225,597.3,221.1,597.3,218.7"/>
			<path class="st34" d="M610.8,211c1.6-1.3,3.6-2.4,5.8-2.4c2.1,0,5.1,1.3,5.1,6v13.7h-5.1v-11.6c0-1.6,0.1-4-2.1-4
				c-1.5,0-2.7,1.1-3.6,2.1v13.5h-5.1V209h5.1V211z"/>
		</g>
		<g>
			<defs>
				<rect id="SVGID_11_" x="70.8" y="70.1" width="810.3" height="197.1"/>
			</defs>
			<clipPath id="SVGID_12_">
				<use xlink:href="#SVGID_11_"  style="overflow:visible;"/>
			</clipPath>
			<line class="st37" x1="346" y1="70.1" x2="346" y2="267.2"/>
		</g>
	</g>
</g>
</svg>
